<?xml version="1.0" encoding="UTF-8"?>
<!DOCTYPE svg PUBLIC "-//W3C//DTD SVG 1.1//EN" "http://www.w3.org/Graphics/SVG/1.1/DTD/svg11.dtd">
<svg version="1.1" xmlns="http://www.w3.org/2000/svg" xmlns:xlink="http://www.w3.org/1999/xlink" x="0" y="0" width="200" height="200" viewBox="0, 0, 200, 200">
  <g id="Layer_1" transform="translate(0, -0)">
    <path d="M11.596,7.589 C10.1,9.054 7.601,11.582 7.601,11.582 C-2.501,21.678 -2.562,25.706 7.589,35.851 C96.657,125.003 164.13,192.438 164.13,192.438 C174.364,202.666 178.437,202.375 188.382,192.436 L192.398,188.422 C202.508,178.318 202.556,174.295 192.408,164.154 C192.408,164.154 35.875,7.621 35.879,7.578 C25.731,-2.563 21.7,-2.492 11.596,7.589 z M188.404,7.589 C178.3,-2.492 174.269,-2.563 164.121,7.578 C164.125,7.621 7.592,164.154 7.592,164.154 C-2.556,174.295 -2.508,178.318 7.602,188.422 L11.618,192.436 C21.563,202.375 25.636,202.666 35.87,192.438 C35.87,192.438 103.343,125.003 192.411,35.851 C202.562,25.706 202.501,21.678 192.399,11.582 C192.399,11.582 189.9,9.054 188.404,7.589 z" fill="#000000"/>
  </g>
</svg>
