<?xml version="1.0" encoding="UTF-8"?>
<!DOCTYPE svg PUBLIC "-//W3C//DTD SVG 1.1//EN" "http://www.w3.org/Graphics/SVG/1.1/DTD/svg11.dtd">
<svg version="1.1" xmlns="http://www.w3.org/2000/svg" xmlns:xlink="http://www.w3.org/1999/xlink" x="0" y="0" width="200" height="200" viewBox="0, 0, 200, 200">
  <g id="Layer_1" transform="translate(-0, -0)">
    <path d="M1.025,80.884 C0.457,81.106 0.111,81.396 0,81.734 L1.025,80.884 z M0,81.734 L0,81.851 L0.06,182.871 C0.06,197.14 2.859,200 17.198,200 L57.186,200 C71.524,200 74.324,197.307 74.324,182.871 L74.263,136.602 L125.676,136.602 L125.737,183.042 C125.737,197.307 128.65,199.977 142.874,199.923 C143.103,200.096 182.862,199.923 182.862,199.923 C197.318,199.923 200,196.918 200,182.871 L199.94,85.259 C199.94,84.804 199.426,84.404 198.4,83.949 L99.97,0 L1.025,80.884 L0,81.734 z" fill="#000000"/>
  </g>
</svg>
