<?xml version="1.0" encoding="UTF-8"?>
<!DOCTYPE svg PUBLIC "-//W3C//DTD SVG 1.1//EN" "http://www.w3.org/Graphics/SVG/1.1/DTD/svg11.dtd">
<svg version="1.1" xmlns="http://www.w3.org/2000/svg" xmlns:xlink="http://www.w3.org/1999/xlink" x="0" y="0" width="200" height="200" viewBox="0, 0, 200, 200">
  <g id="Layer_1" transform="translate(0, 0)">
    <path d="M0.01,17.156 C-0.012,19.248 0.01,22.799 0.01,22.799 C0.01,37.068 2.813,39.957 17.151,39.957 C143.05,40.054 182.874,39.957 182.874,39.957 C197.329,39.957 200,36.875 200,22.828 L200,17.156 C200,2.876 197.191,-0 182.858,-0 C182.858,-0 17.179,0.033 17.151,-0 C2.818,-0 0.021,2.897 0.01,17.156 z M0.01,97.156 C0.021,82.897 2.818,80 17.151,80 C17.179,80.033 182.858,80 182.858,80 C197.191,80 200,82.876 200,97.156 L200,102.828 C200,116.875 197.329,119.957 182.874,119.957 C182.874,119.957 143.05,120.054 17.151,119.957 C2.813,119.957 0.01,117.068 0.01,102.799 C0.01,102.799 -0.012,99.248 0.01,97.156 z M0.01,177.156 C0.021,162.897 2.818,160 17.151,160 C17.179,160.033 182.858,160 182.858,160 C197.191,160 200,162.876 200,177.156 L200,182.828 C200,196.875 197.329,199.957 182.874,199.957 C182.874,199.957 143.05,200.054 17.151,199.957 C2.813,199.957 0.01,197.068 0.01,182.799 C0.01,182.799 -0.012,179.248 0.01,177.156 z" fill="#000000"/>
  </g>
</svg>
