<?xml version="1.0" encoding="UTF-8"?>
<!DOCTYPE svg PUBLIC "-//W3C//DTD SVG 1.1//EN" "http://www.w3.org/Graphics/SVG/1.1/DTD/svg11.dtd">
<svg version="1.1" xmlns="http://www.w3.org/2000/svg" xmlns:xlink="http://www.w3.org/1999/xlink" x="0" y="0" width="400" height="500" viewBox="0, 0, 400, 500">
  <g id="Layer_1">
    <path d="M161.238,102.484 C164.14,109.517 143.754,122.333 139.558,107.567 C128.417,121.543 121.97,94.697 136.019,99.083 C119.157,92.722 123.728,62.855 129.354,63.513 C140.363,64.803 140.942,86.704 140.942,86.704 C140.942,86.704 160.458,56.171 172.883,64.329 C183.753,71.466 165.395,96.798 151.077,100.469 C159.635,97.614 160.498,100.689 161.238,102.484 z" fill="#F1B66C"/>
    <path d="M40.754,201.614 C41.608,194.672 48.098,190.1 48.098,190.1 C48.098,190.1 28.629,196.534 17.016,166.057 C30.507,156.914 48.008,173.995 47.927,173.846 C45.602,169.586 44.7,164.92 46.316,164.505 C48.459,163.954 48.88,167.275 50.334,170.415 C50.414,170.589 49.798,150.589 73.886,141.675 C88.914,169.105 65.859,181.634 65.859,181.634 C65.859,181.634 77.301,175.2 84.474,180.618 C85.157,198.397 63.127,191.116 63.127,191.116 C63.127,191.116 60.223,210.588 40.754,201.614 z" fill="#FF6562"/>
    <g>
      <path d="M113.435,33.522 C107.565,9.771 134.694,1.12 137.391,1.907 C140.088,2.693 140.088,10.243 138.185,13.389 C136.281,16.535 119.464,37.14 118.671,37.926 C117.878,38.713 114.4,37.195 113.435,33.522 z" fill="#3BAAD7"/>
      <path d="M122.478,45.791 C121.526,40.915 119.781,39.814 116.826,37.741 C115.205,13.081 146.117,12.611 146.117,12.76 C146.117,12.76 152.622,43.589 122.478,45.791 z" fill="#3BAAD7"/>
      <path d="M145.763,11.533 C145.892,11.532 146,11.533 146.086,11.537 C146.146,11.54 146.199,11.544 146.254,11.551 C146.317,11.56 146.377,11.57 146.451,11.592 C146.981,11.722 147.299,12.037 147.33,12.593 C147.362,12.747 147.388,12.902 147.415,13.057 C147.487,13.481 147.559,13.967 147.626,14.51 C148.226,19.366 148.044,24.665 146.518,29.687 C145.149,34.195 142.785,38.038 139.267,40.979 C135.164,44.409 129.635,46.483 122.568,46.999 L121.485,47.079 L121.278,46.021 C120.651,42.809 119.791,41.439 117.751,39.896 C117.363,39.602 117.309,39.564 116.12,38.73 L115.643,38.396 L115.606,37.819 C115.207,31.754 116.671,26.72 119.743,22.683 C122.332,19.28 125.971,16.698 130.384,14.832 C133.793,13.391 137.477,12.453 141.139,11.933 C142.448,11.746 143.673,11.627 144.724,11.569 C145.129,11.546 145.487,11.534 145.763,11.533 z M145.92,12.745 C136.586,13.076 125.773,16.079 120.231,24.085 C117.422,28.142 116.603,32.903 116.826,37.741 C119.781,39.814 121.526,40.915 122.478,45.791 C152.622,43.589 146.117,12.76 146.117,12.76 C146.039,12.737 146.102,12.754 145.92,12.745 z" fill="#FEFEFE"/>
      <path d="M123.098,52.617 C123.43,49.723 123.113,48.307 122.092,44.837 C131.01,37.783 143.933,46.68 145.165,48.307 C145.261,48.433 144.713,55.594 134.536,56.644 C129.23,57.191 124.152,55.347 123.098,52.617 z" fill="#3BAAD7"/>
      <path d="M110.738,35.724 C119.464,34.78 122.002,43.274 123.43,45.791 C124.858,48.307 125.969,63.424 125.334,62.944 C124.699,62.463 122.161,39.027 112.606,38.819 C109.786,38.083 110.897,35.724 110.738,35.724 z" fill="#3BAAD7"/>
    </g>
    <path d="M284.657,188.132 C270.573,189.366 268.353,179.018 274.845,174.806 C286.338,167.35 289.662,183.463 289.662,183.463 C289.662,183.463 289.014,152.662 305.568,153.424 C312.026,153.721 317.989,172.973 301.016,184.245 C301.016,184.245 301.016,184.245 301.016,184.245 C301.016,184.245 301.016,184.245 301.016,184.245 C301.016,184.245 301.016,184.245 301.016,184.245 C301.016,184.245 301.016,184.245 301.016,184.245 C301.016,184.245 301.016,184.245 301.016,184.245 C301.016,184.245 301.079,184.377 301.079,184.377 C309.526,182.751 312.791,185.555 312.791,185.555 C312.791,185.555 304.534,185.1 300.433,186.765 C323.774,187.175 324.593,199.788 323.774,202.582 C322.954,205.377 308.091,214.769 296.282,197.91 C295.235,206.505 289.451,207.117 284.92,206.149 C278.445,204.765 278.804,195.051 284.657,188.132 z" fill="#69C57C"/>
    <path d="M285.56,218.75 C267.426,211.92 257.805,233.973 257.805,233.973 C257.805,233.973 253.564,229.224 251.646,228.881 C250.7,228.711 250.066,231.131 252.482,232.665 C256.765,235.382 259.21,240.139 261.111,243.01 C263.019,245.891 269.452,260.298 282.573,254.933 C282.246,241.571 267.84,243.774 267.84,243.774 C267.84,243.774 285.713,241.895 285.56,218.75 z" fill="#F1B66C"/>
    <path d="M86.777,215.869 C104.424,207.881 115.476,229.264 115.476,229.264 C115.476,229.264 119.395,224.251 121.286,223.784 C122.219,223.554 123.011,225.928 120.701,227.614 C116.606,230.603 114.479,235.508 112.771,238.496 C111.057,241.494 105.586,256.286 92.139,251.782 C91.587,238.427 106.107,239.693 106.107,239.693 C106.107,239.693 88.149,238.974 86.777,215.869 z" fill="#3BAAD7"/>
    <path d="M326.58,249.398 C326.58,249.398 321.494,255.642 320.404,255.882 C319.314,256.122 323.916,248.918 323.916,248.918 C323.916,248.918 319.072,254.321 311.079,249.759 C310.716,243.515 318.83,242.435 318.83,242.435 C318.83,242.435 308.536,229.468 311.564,217.702 C326.822,216.862 331.908,232.47 331.908,232.47 L331.908,232.47 C331.908,232.47 334.362,225.819 335.452,226.66 C336.542,227.5 334.815,233.19 334.815,233.19 C334.815,233.19 347.046,223.705 357.097,229.828 C349.589,246.277 335.42,245.917 335.42,245.917 C335.42,245.917 340.385,251.56 338.811,254.681 C327.549,255.281 326.58,249.398 326.58,249.398 z" fill="#3BAAD7"/>
    <path d="M117.325,343.53 C117.325,343.53 122.505,349.063 123.543,349.218 C124.582,349.373 119.793,342.909 119.793,342.909 C119.793,342.909 124.691,347.668 131.894,342.874 C131.828,336.992 124.143,336.498 124.143,336.498 C124.143,336.498 132.957,323.67 129.349,312.823 C114.975,313.013 111.22,327.986 111.22,327.986 L111.22,327.986 C111.22,327.986 109.046,321.342 108.078,322.201 C107.11,323.059 108.54,328.848 108.54,328.848 C108.54,328.848 96.444,320.731 87.411,327.122 C95.529,342.076 108.802,340.829 108.802,340.829 C108.802,340.829 104.511,346.443 106.192,349.271 C116.799,349.113 117.325,343.53 117.325,343.53 z" fill="#F1B66C"/>
    <path d="M375.29,195.189 C375.29,195.189 371.172,200.244 370.29,200.438 C369.407,200.633 373.133,194.8 373.133,194.8 C373.133,194.8 369.211,199.175 362.74,195.481 C362.445,190.425 369.015,189.55 369.015,189.55 C369.015,189.55 360.68,179.051 363.132,169.524 C375.487,168.844 379.605,181.482 379.605,181.482 L379.605,181.482 C379.605,181.482 381.076,175.649 381.958,176.329 C382.841,177.01 381.958,182.065 381.958,182.065 C381.958,182.065 391.862,174.385 400,179.343 C393.921,192.661 382.448,192.37 382.448,192.37 C382.448,192.37 386.469,196.939 385.194,199.466 C376.075,199.952 375.29,195.189 375.29,195.189 z" fill="#FF6562"/>
    <path d="M284.837,164.416 C295.755,152.831 281.787,138.668 281.787,138.668 C281.787,138.668 286.765,136.942 287.628,135.599 C288.054,134.936 286.39,133.701 284.455,135.05 C281.027,137.441 276.603,137.806 273.8,138.348 C270.987,138.892 257.891,139.261 257.924,150.861 C268.309,154.785 271.111,143.2 271.111,143.2 C271.111,143.2 266.978,157.306 284.837,164.416 z" fill="#3BAAD7"/>
    <path d="M177.982,149.041 C178.405,144.246 181.555,140.149 189.291,141.488 C196.972,142.818 204.107,153.282 204.107,153.282 C204.107,153.282 206.316,147.33 207.977,146.319 C208.796,145.82 210.274,147.846 208.585,150.145 C205.593,154.22 205.789,159.793 204.964,163.129 C203.388,169.498 193.708,186.675 187.067,174.623 C181.079,163.756 198.66,164.914 198.66,164.914 C198.66,164.914 176.936,160.897 177.982,149.041 z" fill="#FF6562"/>
    <path d="M302.766,120.275 C302.766,120.275 299.782,123.979 300.228,124.994 C300.674,126.009 304.353,121.114 304.353,121.114 C304.353,121.114 302.872,131.496 315.352,135.166 C319.372,128.979 315.196,121.771 315.196,121.771 C315.196,121.771 331.746,128.874 339.996,118.178 C334.041,98.754 317.574,107.587 317.574,107.587 C320.367,104.678 320.727,103.721 319.968,103.082 C318.873,102.159 315.67,106.853 315.67,106.853 C315.67,106.853 318.859,93.79 307.949,89.342 C294.94,106.224 304.141,111.467 304.141,111.467 C304.141,111.467 298.007,109.475 293.036,114.089 C295.891,122.897 302.766,120.275 302.766,120.275 z" fill="#F1B66C"/>
    <g>
      <path d="M265.253,54.346 C255.051,56.051 231.524,40.094 241.933,13.005 C260.633,16.082 266.453,33.878 264.549,37.024 z" fill="#FF6562"/>
      <path d="M268.654,52.602 C276.041,37.954 286.36,39.465 295.624,46.906 C295.747,47.005 292.757,55.826 282.58,56.876 C277.275,57.423 267.335,55.217 268.654,52.602 z" fill="#FF6562"/>
      <path d="M266.308,55.509 C257.866,43.999 264.301,13.404 285.474,6.322 C303.598,38.419 266.308,55.509 266.308,55.509 z" fill="#FF6562"/>
      <path d="M286.045,4.852 L286.541,5.73 C291.709,14.884 292.839,23.456 290.524,31.362 C288.659,37.729 284.666,43.357 279.194,48.249 C276.494,50.664 273.605,52.743 270.715,54.487 C269.703,55.099 268.761,55.625 267.914,56.066 C267.615,56.221 267.349,56.355 267.119,56.467 C266.977,56.536 266.877,56.584 266.821,56.609 L265.91,57.027 L265.32,56.222 C260.878,50.167 260.28,39.298 263.62,28.888 C267.271,17.511 274.882,8.585 285.083,5.173 L286.045,4.852 z M285.474,6.322 C264.301,13.404 257.865,43.999 266.308,55.509 C266.308,55.509 303.598,38.419 285.474,6.322 z" fill="#FEFEFE"/>
      <path d="M257.599,55.154 C264.256,49.483 271.384,53.682 273.461,55.741 C275.924,58.183 278.832,66.246 278.035,66.206 C277.237,66.166 268.903,51.473 260.905,56.659 C258.16,57.634 257.73,55.066 257.599,55.154 z" fill="#FF6562"/>
    </g>
    <g>
      <path d="M184.097,3.787 C199.856,15.195 196.927,29.301 196.927,29.301 C196.927,29.301 194.866,38.319 184.258,33.624 C177.11,30.461 170.433,14.679 184.097,3.787 z" fill="#69C57C"/>
      <path d="M192.423,33.238 C191.38,30.663 185.238,12.493 209.55,1.489 C219.117,13.006 205.754,29.817 205.754,29.817 C205.754,29.817 212.706,22.995 218.598,28.049 C218.679,41.75 203.358,41.631 200.526,40.611 C197.606,39.56 193.467,35.813 192.423,33.238 z" fill="#69C57C"/>
      <path d="M209.897,0 L210.494,0.719 C214.586,5.644 215.131,11.763 213.051,18.467 C212.238,20.992 211.21,23.469 209.87,25.767 C213.45,24.425 216.389,24.731 219.398,27.132 L219.818,27.492 L219.821,28.042 C219.86,34.667 216.548,38.949 211.085,40.985 C207.283,42.402 202.361,42.561 200.109,41.75 C196.861,40.581 192.462,36.586 191.289,33.69 C190.799,32.48 190.325,30.836 190.032,28.92 C189.603,26.12 189.638,23.203 190.284,20.266 C192.038,12.293 197.955,5.405 209.043,0.387 L209.897,0 z M209.55,1.489 C185.238,12.493 191.38,30.663 192.423,33.238 C193.467,35.813 197.606,39.56 200.526,40.611 C203.358,41.631 218.679,41.75 218.598,28.049 C212.706,22.995 205.754,29.817 205.754,29.817 C205.754,29.817 219.117,13.006 209.55,1.489 z" fill="#FEFEFE"/>
      <path d="M186.955,36.983 C188.147,38.689 190.729,37.098 194.196,40.21 C200.066,45.479 207.819,44.587 207.508,43.858 C207.296,43.36 200.144,41.606 196.325,37.605 C194.553,35.748 192.643,34.452 189.498,34.305 C186.585,34.169 185.763,35.277 186.955,36.983 z" fill="#69C57C"/>
    </g>
    <path d="M324.244,57.986 C324.244,57.986 321.43,62.669 320.721,62.934 C320.011,63.199 322.407,57.917 322.407,57.917 C322.407,57.917 319.674,62.012 313.857,59.706 C313.008,55.543 318.358,54.043 318.358,54.043 C318.358,54.043 310.18,46.306 311.075,38.106 C321.252,36.087 326.185,46.096 326.185,46.096 L326.185,46.096 C326.185,46.096 326.708,41.08 327.523,41.541 C328.337,42.002 328.209,46.304 328.209,46.304 C328.209,46.304 335.513,38.761 342.865,41.92 C339.412,53.694 329.851,54.803 329.851,54.803 C329.851,54.803 333.736,58.123 332.98,60.372 C325.466,61.849 324.244,57.986 324.244,57.986 z" fill="#5B5189"/>
    <path d="M108.503,110.303 C110.161,114.717 110.9,121.258 108.989,123.442 C102.039,131.385 87.398,127.655 102.841,112.065 C86.54,125.626 67.353,114.983 72.084,108.463 C80.802,96.446 97.042,101.46 97.042,101.46 C90.68,98.655 89.526,97.494 89.203,96.302 C88.989,95.516 100.15,102.091 96.818,99.195 C87.908,91.449 94.982,78.711 97.853,78.103 C100.723,77.495 108.839,82.148 109.191,102.163 C112.994,95.334 134.866,111.987 108.503,110.303 z" fill="#69C57C"/>
    <path d="M87.422,458.548 C89.334,455.84 100.939,451.343 103.52,449.053 C106.101,446.763 108.556,440.235 112.486,433.295 C116.833,425.618 138.348,414.92 143.349,411.38 C148.35,407.84 169.107,392.75 170.235,389.905 C172.476,384.248 173.889,377.535 173.618,368.04 C173.498,363.843 174.675,354.502 175.465,344.361 C176.462,331.558 177.169,317.48 177.533,310.866 C181.051,276.865 178.794,269.917 177.286,264.198 C175.778,258.479 167.252,240.026 158.742,235.712 C150.232,231.398 127.587,223.364 115.944,233.357 C122.092,219.987 139.995,225.409 139.995,225.409 C139.995,225.409 139.995,225.409 139.995,225.409 C139.995,225.409 133.632,222.814 126.603,219.512 C119.796,216.315 112.385,212.439 108.019,211.119 C95.837,207.434 92.596,209.439 86.107,209.118 C79.947,208.812 74.134,207.295 60.32,207.843 C56.955,207.977 79.111,201.702 86.957,204.568 C83.144,203.681 80.027,202.138 76.204,201.01 C63.262,197.189 54.017,193.906 50.409,177.135 C59.311,190.181 68.58,193.103 77.046,195.151 C85.512,197.198 150.988,212.521 179.845,237.272 C179.258,214.726 163.938,187.333 155.503,176.32 C150.536,169.834 138.143,154.64 133.624,146.632 C129.105,138.623 122.447,130.146 119.213,124.112 C112.875,112.286 102.204,106.262 97.754,100.572 C115.296,106.44 113.071,110.451 116.75,110.885 C109.463,100.205 109.219,68.309 97.754,60.21 C107.584,63.766 109.59,71.59 109.59,71.59 C109.59,71.59 109.043,52.268 117.089,39.051 C103.928,95.573 132.86,130.167 138.953,141.283 C141.878,142.249 130.423,119.052 140.942,86.704 C137.893,132.044 152.633,158.893 152.633,158.893 C152.633,158.893 151.702,147.514 156.578,141.112 C154.392,151.781 156.074,154.981 158.372,163.338 C160.669,171.695 182.339,201.78 185.567,218.071 C194.663,208.616 202.943,202.195 205.405,194.872 C208.079,186.918 205.402,175.131 205.322,168.673 C205.266,164.104 204.712,155.14 208.245,150.869 C206.78,157.532 210.153,162.627 212.484,163.516 C214.816,164.405 221.116,151.603 217.518,139.868 C213.919,128.133 203.541,116.931 203.35,107.329 C206.921,113.371 212.414,124.075 218.664,128.77 C218.285,124.263 217.717,120.319 219.422,110.93 C224.689,81.919 220.558,70.18 210.33,58.537 C201.157,48.094 191.957,38.819 191.957,38.819 C191.957,38.819 205.131,47.23 209.806,52.565 C211.946,52.92 212.305,44.03 213.393,42.252 C214.995,48.653 213.562,56.653 213.74,56.832 C225.218,68.389 230.06,82.436 230.06,82.436 C230.06,82.436 246.745,61.613 263.871,55.555 C244.733,69.877 227.567,89.897 226.305,121.732 C230.101,114.112 239.218,107.685 239.218,107.685 C239.218,107.685 225.502,128.074 228.376,141.752 C255.105,120.951 286.798,109.628 311.006,113.97 C264.375,117.786 241.279,143.424 241.279,143.424 C241.279,143.424 260.466,131.655 281.547,136.623 C267.872,140.425 257.586,137.977 235.002,153.381 C224.093,160.822 216.256,174.117 215.275,179.163 C214.294,184.209 216.77,190.177 214.497,198.627 C212.839,204.793 196.276,218.252 193.878,224.876 C191.299,231.997 193.087,236.619 193.49,242.799 C206.595,222.372 208.997,225.399 216.584,218.56 C224.172,211.722 223.482,208.53 224.172,203.059 C227.851,203.743 227.161,209.214 231.07,208.758 C234.978,208.302 268.623,183.315 302.614,185.209 C302.347,185.735 268.183,190.193 243.073,210.102 C253.237,208.999 263.552,209.564 263.552,209.564 C263.552,209.564 232.975,214.698 214.378,231.972 C245.477,222.249 255.627,235.35 255.627,235.35 C244.328,227.093 215.178,232.225 203.438,247.797 C195.489,258.339 198.925,276.987 197.394,304.089 C196.569,318.693 196.724,333.863 196.632,346.223 C196.523,360.792 196.249,371.456 196.237,372.687 C196.193,376.9 196.891,384.728 198.41,388.165 C199.928,391.602 203.267,402.194 213.557,410.062 C223.847,417.93 248.881,420.952 255.942,430.871 C259.266,435.343 258.463,442.75 261.604,445.497 C262.911,446.641 265.153,448.135 268.255,448.428 C270.195,448.611 270.619,451.717 272.782,451.817 C274.944,451.917 277.585,449.161 281.28,449.71 C284.975,450.26 285.127,455.022 287.73,455.114 C290.333,455.206 292.865,451.892 293.566,452.733 C295.783,455.389 290.231,460.846 287.119,460.771 C284.236,460.701 283.54,456.909 282.112,455.663 C280.777,454.5 279.979,455.638 279.248,456.396 C277.735,457.967 280.898,461.25 281.65,463.265 C282.402,465.28 281.65,467.295 283.859,468.044 C285.025,468.439 286,470.427 288.116,471.416 C291.112,472.816 295.229,473.156 295.474,474.307 C295.785,475.771 284.793,473.824 281.65,471.599 C280.062,470.476 278.313,467.524 277.174,464.165 C276.058,460.872 276.846,458.686 273.243,456.762 C269.875,454.964 267.978,457.848 265.391,456.762 C262.805,455.677 263.446,452.291 261.647,451.275 C259.849,450.26 257.453,450.059 253.807,448.042 C250.161,446.024 246.411,439.323 244.123,437.74 C241.835,436.156 238.76,434.259 236.787,436.123 C234.815,437.987 234.722,441.408 234.953,444.002 C235.184,446.596 236.592,452.711 239.029,454.508 C241.466,456.305 242.912,454.529 245.715,456.579 C247.5,457.885 248.117,460.975 249.78,461.983 C251.493,463.021 254.48,460.83 257.164,462.185 C257.164,462.185 257.164,462.185 257.164,462.185 C259.094,462.748 259.783,468.161 262.338,470.41 C265.59,473.273 269.179,472.149 271.632,474.509 C274.297,477.071 276.556,482.803 274.689,487.034 C274.258,488.012 274.743,481.782 270.206,478.751 C265.669,475.721 260.472,476.821 259.19,475.708 C255.373,472.397 255.828,465.598 253.497,466.629 C251.165,467.661 252.334,473.172 253.089,475.317 C253.844,477.461 255.964,477.795 258.183,479.963 C260.403,482.132 261.289,488.48 259.406,490.671 C257.904,492.419 259.963,486.425 256.349,484.004 C252.736,481.582 251.72,483.78 249.217,480.973 C245.003,476.246 248.47,467.036 244.976,463.448 C241.36,459.735 234.38,461.991 232.304,458.952 C228.443,453.302 227.88,437.88 227.21,436.325 C226.54,434.771 224.885,431.952 222.727,435.113 C220.569,438.275 223.737,447.94 223.006,450.719 C222.275,453.498 219.594,457.847 224.153,460.771 C227.545,462.946 225.808,471.019 227.21,472.286 C228.612,473.553 228.837,471.057 230.674,471.882 C232.511,472.708 235.436,476.815 234.546,480.367 C234.307,481.32 233.239,477.662 231.658,476.815 C229.826,475.834 228.612,478.869 225.58,476.529 C222.701,474.307 223.494,459.418 219.263,465.417 C217.843,467.431 221.3,470.895 221.301,473.7 C221.301,476.939 218.684,480.315 218.651,483.398 C218.619,486.481 225.053,497.604 223.542,497.54 C222.031,497.475 216.017,488.738 214.576,484.408 C213.136,480.078 216.494,478.137 216.548,474.762 C216.601,471.386 213.777,468.022 213.761,463.599 C213.745,459.176 216.292,456.724 217.157,453.498 C218.022,450.271 218.619,434.771 213.965,432.083 C203.772,426.196 199.235,432.978 195.218,431.881 C191.201,430.784 189.427,426.187 187.474,428.042 C185.844,429.591 189.403,430.663 192.025,434.911 C193.639,437.526 195.202,441.37 196.304,444.878 C199.477,454.974 200.391,468.682 197.867,467.64 C197.123,467.333 196.304,464.475 196.508,461.175 C196.663,458.661 194.346,452.278 192.84,449.861 C191.414,447.572 191.45,444.53 190.191,440.299 C188.629,435.046 184.714,433.696 183.738,434.574 C181.497,436.595 180.954,440.626 181.769,444.204 C182.584,447.783 184.333,447.405 186.455,450.063 C187.746,451.679 186.611,453.621 188.267,455.475 C191.142,458.693 191.428,463.325 189.92,462.791 C188.797,462.394 188.351,457.919 186.595,456.472 C184.005,454.339 183.719,451.204 182.749,452.823 C180.114,457.221 181.565,466.204 183.498,471.473 C185.432,476.742 182.082,499.181 179.935,499.964 C176.932,501.059 183.674,476.81 177.286,472.892 C173.597,470.63 171.914,483.903 170.765,480.771 C168.735,475.237 174.644,472.103 175.656,462.791 C176.667,453.479 173.254,446.366 173.21,443.8 C173.166,441.235 175.714,439.885 175.859,437.134 C176.005,434.382 174.647,428.264 172.191,429.659 C167.501,432.322 168.865,435.816 168.105,441.969 C167.391,447.764 171.514,452.266 168.969,453.228 C167.52,453.776 165.828,445.843 165.263,442.386 C164.156,435.606 168.639,425.544 162.818,427.638 C156.997,429.732 156.622,431.12 156.501,434.709 C156.38,438.298 160.567,441.545 163.225,444.204 C163.225,444.204 160.32,439.587 163.225,444.204 C166.131,448.822 163.596,451.265 163.539,456.042 C163.485,460.487 164.493,464.115 162.818,463.599 C159.342,462.528 161.564,452.796 160.576,448.851 C160.098,446.942 157.174,445.626 155.639,443.316 C154.004,440.852 153.737,437.46 152.629,437.74 C148.715,438.729 155.901,447.2 155.886,452.126 C155.871,457.052 153.574,458.382 153.037,463.397 C152.554,467.912 155.588,468.438 156.75,471.95 C157.302,473.619 156.983,475.328 157.231,476.854 C157.743,480.008 158.256,482.379 156.908,481.984 C156.259,481.793 155.404,479.603 154.525,478.482 C153.519,477.198 152.481,476.897 151.69,475.456 C150.07,472.51 150.702,468.604 147.987,471.296 C144.425,474.827 156.75,486.103 150.999,495.519 C150.445,496.427 150.807,490.822 149.468,486.592 C147.293,479.719 142.432,477.659 142.926,469.827 C143.143,466.384 147.69,460.794 148.234,458.324 C148.777,455.855 147.572,449.612 145.701,445.821 C143.296,440.948 145.092,430.338 144.071,430.871 C143.05,431.403 139.785,438.045 141.445,442.539 C145.085,452.389 142.277,449.202 143.42,453.839 C143.914,455.846 144.955,457.462 143.79,459.671 C140.951,465.055 140.458,467.013 137.958,468.65 C137.452,468.981 138.185,464.464 139.792,460.299 C140.675,458.01 139.485,455.566 138.773,453.902 C137.822,451.679 139.75,449.183 136.014,449.924 C129.312,451.253 133.95,467.034 130.894,472.892 C129.004,476.513 125.324,478.751 124.577,477.808 C123.921,476.981 127.506,474.914 127.905,469.054 C128.391,461.92 126.343,453.969 128.72,449.525 C130.855,445.534 134.086,445.753 136.531,441.174 C137.812,438.775 137.346,431.409 138.909,428.514 C140.471,425.618 144.886,420.365 144.886,420.365 C144.886,420.365 135.192,425.442 129.943,430.467 C126.912,433.367 128.652,436.999 126.818,437.47 C126.886,436.325 126.616,434.973 125.867,434.911 C124.427,434.793 122.035,436.651 121.588,439.221 C120.909,443.127 124.848,448.582 124.101,453.767 C123.499,457.944 119.618,462.05 119.278,465.35 C119.157,466.529 119.634,469.804 118.599,472.556 C117.105,476.529 119.075,478.684 117.648,479.155 C116.345,479.586 113.505,469.66 114.048,466.293 C114.592,462.926 118.531,458.481 118.735,455.249 C118.939,452.016 118.124,449.188 117.784,448.716 C117.445,448.245 115.593,449.836 114.863,452.959 C114.46,454.685 115.591,457.319 114.931,458.818 C113.534,461.993 111.091,462.936 110.448,462.791 C109.773,462.639 111.612,461.138 111.875,458.75 C112.193,455.855 110.448,453.026 111.671,450.333 C112.924,447.573 115.882,446.898 115.543,441.982 C115.42,440.207 116.546,439.837 116.086,439.086 C114.931,437.201 111.875,451.006 103.792,455.316 C100.073,457.299 101.283,459.536 100.192,461.646 C98.895,464.153 97.475,462.993 97.814,467.034 C98.058,469.932 100.582,470.011 101.958,473.162 C103.135,475.856 102.569,478.212 102.23,478.751 C101.636,479.693 100.605,473.955 97.172,478.745 C93.757,483.509 98.018,487.573 96.388,486.63 C94.758,485.687 93.196,484.947 92.788,482.253 C92.381,479.559 94.962,477.202 95.369,474.711 C95.777,472.219 93.603,471.882 93.671,468.784 C93.739,465.687 95.301,464.07 95.573,462.589 C95.845,461.107 95.301,459.289 93.535,459.963 C90.983,460.936 92.545,463.836 91.837,466.427 C91.039,469.35 88.993,471.442 88.237,471.478 C88.237,471.478 88.237,471.478 88.237,471.478 C87.627,471.507 89.027,468.78 88.848,467.303 C88.645,465.619 87.015,465.417 87.493,462.169 C87.716,460.655 86.471,459.895 87.422,458.548 z" fill="#444444"/>
    <path d="M23.51,110.034 C23.51,110.034 18.464,118.37 17.197,118.839 C15.93,119.309 20.232,109.901 20.232,109.901 C20.232,109.901 15.335,117.188 4.973,113.044 C3.481,105.614 13.032,102.968 13.032,102.968 C13.032,102.968 -1.512,89.123 0.129,74.503 C18.294,70.957 27.037,88.837 27.037,88.837 L27.037,88.837 C27.037,88.837 27.997,79.892 29.447,80.719 C30.897,81.546 30.646,89.217 30.646,89.217 C30.646,89.217 43.715,75.803 56.811,81.477 C50.586,102.461 33.526,104.386 33.526,104.386 C33.526,104.386 40.438,110.33 39.078,114.337 C25.668,116.931 23.51,110.034 23.51,110.034 z" fill="#5B5189"/>
  </g>
</svg>
